HIERARCHY
ROOT Pelvis
{
	OFFSET 0.000000 0.000000 0.000000
	CHANNELS 6 Xposition Yposition Zposition Xrotation Yrotation Zrotation
	JOINT LeftUpLeg_virtual
	{
		OFFSET 0.000000 0.000000 0.000000
		CHANNELS 3 Xrotation Yrotation Zrotation
		JOINT LeftUpLeg
		{
			OFFSET 8.479700 -4.795502 -0.379100
			CHANNELS 3 Xrotation Yrotation Zrotation
			JOINT LeftLeg
			{
				OFFSET 0.024144 -32.555107 0.112900
				CHANNELS 3 Xrotation Yrotation Zrotation
				JOINT LeftFoot
				{
					OFFSET -0.024144 -32.638630 -3.012600
					CHANNELS 3 Xrotation Yrotation Zrotation
					JOINT LeftToeBase
					{
						OFFSET 0.970200 -13.225400 11.864200
						CHANNELS 3 Xrotation Yrotation Zrotation
						End Site
						{
							OFFSET 0 0 0
						}
					}
				}
			}
		}
	}
	JOINT RightUpLeg_virtual
	{
		OFFSET 0.000000 0.000000 0.000000
		CHANNELS 3 Xrotation Yrotation Zrotation
		JOINT RightUpLeg
		{
			OFFSET -8.479700 -4.795502 -0.379100
			CHANNELS 3 Xrotation Yrotation Zrotation
			JOINT RightLeg
			{
				OFFSET -0.023144 -32.555092 0.112900
				CHANNELS 3 Xrotation Yrotation Zrotation
				JOINT RightFoot
				{
					OFFSET 0.023144 -32.638641 -3.012700
					CHANNELS 3 Xrotation Yrotation Zrotation
					JOINT RightToeBase
					{
						OFFSET -0.970200 -13.225400 11.864200
						CHANNELS 3 Xrotation Yrotation Zrotation
						End Site
						{
							OFFSET 0 0 0
						}
					}
				}
			}
		}
	}
	JOINT Hips_virtual
	{
		OFFSET 0.000000 0.000000 0.000000
		CHANNELS 3 Xrotation Yrotation Zrotation
		JOINT Hips
		{
			OFFSET -0.000000 -0.000000 -0.000000
			CHANNELS 3 Xrotation Yrotation Zrotation
			JOINT Spine
			{
				OFFSET 0.000000 7.722000 1.166200
				CHANNELS 3 Xrotation Yrotation Zrotation
				JOINT Spine1
				{
					OFFSET 0.000000 12.024101 0.248800
					CHANNELS 3 Xrotation Yrotation Zrotation
					JOINT Spine2
					{
						OFFSET 0.000000 11.502998 -0.491200
						CHANNELS 3 Xrotation Yrotation Zrotation
						JOINT Neck_virtual
						{
							OFFSET 0.000000 0.000000 0.000000
							CHANNELS 3 Xrotation Yrotation Zrotation
							JOINT Neck
							{
								OFFSET 0.000000 18.430702 -3.123100
								CHANNELS 3 Xrotation Yrotation Zrotation
								JOINT Head
								{
									OFFSET 0.000000 9.051102 1.034000
									CHANNELS 3 Xrotation Yrotation Zrotation
									End Site
									{
										OFFSET 0 0 0
									}
								}
							}
						}
						JOINT LeftShoulder_virtual
						{
							OFFSET 0.000000 0.000000 0.000000
							CHANNELS 3 Xrotation Yrotation Zrotation
							JOINT LeftShoulder
							{
								OFFSET 6.197800 13.665199 -4.064700
								CHANNELS 3 Xrotation Yrotation Zrotation
								JOINT LeftArm
								{
									OFFSET 7.778100 -0.187103 -1.709300
									CHANNELS 3 Xrotation Yrotation Zrotation
									JOINT LeftForeArm
									{
										OFFSET 22.049376 0.000000 0.000000
										CHANNELS 3 Xrotation Yrotation Zrotation
										JOINT LeftHand
										{
											OFFSET 23.009392 0.000000 0.000000
											CHANNELS 3 Xrotation Yrotation Zrotation
											End Site
											{
												OFFSET 0 0 0
											}
										}
									}
								}
							}
						}
						JOINT RightShoulder_virtual
						{
							OFFSET 0.000000 0.000000 0.000000
							CHANNELS 3 Xrotation Yrotation Zrotation
							JOINT RightShoulder
							{
								OFFSET -6.197800 13.665199 -4.064700
								CHANNELS 3 Xrotation Yrotation Zrotation
								JOINT RightArm
								{
									OFFSET -7.778100 -0.187103 -1.709300
									CHANNELS 3 Xrotation Yrotation Zrotation
									JOINT RightForeArm
									{
										OFFSET -22.049376 0.000000 0.000000
										CHANNELS 3 Xrotation Yrotation Zrotation
										JOINT RightHand
										{
											OFFSET -23.009392 0.000000 0.000000
											CHANNELS 3 Xrotation Yrotation Zrotation
											End Site
											{
												OFFSET 0 0 0
											}
										}
									}
								}
							}
						}
					}
				}
			}
		}
	}
}
MOTION
Frames: 4
Frame Time: 0.03333333
-0.317678 81.142883 9.455395 0.000000 0.000000 0.000000 4.071185 36.474020 -2.716010 -24.241584 6.121097 5.883528 22.400275 -35.622742 -5.179342 -6.856361 -6.512051 3.174377 0.000000 0.000000 0.000000 4.071185 36.474020 -2.716010 -13.870256 14.793918 -0.320888 22.856704 12.558011 1.080497 -12.477244 2.718610 -0.598916 0.000000 0.000000 0.000000 4.071185 36.474020 -2.716010 0.000000 -0.000001 0.000000 7.113186 0.518675 -2.474306 1.179942 0.647725 1.438048 0.000000 0.000000 0.000000 1.171144 0.823292 1.416788 -1.447715 25.849751 -8.284149 0.000000 0.000000 0.000000 1.171144 0.823292 1.416788 -0.063462 -2.703544 -0.486094 -58.743827 21.372253 -22.798862 10.391411 -75.898346 11.787418 0.000000 0.000000 0.000000 1.171144 0.823292 1.416788 4.836699 8.975262 6.727821 10.740036 17.144880 61.498409 10.869386 22.267127 -5.100412 0.000000 0.000000 0.000000 
-0.957914 81.204865 9.766994 0.000000 0.000000 0.000000 4.329317 39.294560 -3.159460 -24.742644 6.426759 6.558791 21.615003 -39.025672 -5.433523 -7.206358 -4.546365 2.670183 0.000000 0.000000 0.000000 4.329317 39.294560 -3.159460 -13.581318 13.900656 0.417997 22.539286 11.480372 0.989892 -12.328531 1.638597 -1.100377 0.000000 0.000000 0.000000 4.329317 39.294560 -3.159460 0.000000 -0.000001 0.000000 7.214440 0.388124 -2.676185 1.139005 0.472311 1.508125 0.000000 0.000000 0.000000 1.129819 0.657998 1.495976 -1.497328 24.861776 -8.282024 0.000000 0.000000 0.000000 1.129819 0.657998 1.495976 -0.098273 -4.304836 -0.130151 -58.723460 20.289167 -23.609847 9.881799 -75.007075 11.444849 0.000000 0.000000 0.000000 1.129819 0.657998 1.495976 4.845235 8.887828 6.669459 9.629284 15.060103 62.090265 10.941257 22.517810 -5.122135 0.000000 0.000000 0.000000 
-1.585103 81.234207 9.989960 0.000000 0.000000 0.000000 4.730910 41.588257 -3.778312 -25.330650 7.141364 7.582348 21.268564 -37.825472 -5.096507 -7.316891 -4.754037 1.480865 0.000000 0.000000 0.000000 4.730910 41.588257 -3.778312 -13.653914 13.178352 1.221735 22.306044 10.173560 0.881732 -12.108041 1.122792 -1.398090 0.000000 0.000000 0.000000 4.730910 41.588257 -3.778312 0.000000 0.000001 0.000000 7.288920 0.341893 -2.803468 1.074961 0.409439 1.547331 0.000000 0.000000 0.000000 1.065683 0.600865 1.538320 -1.669404 23.934933 -8.054801 0.000000 0.000000 0.000000 1.065683 0.600865 1.538320 -0.137372 -5.857311 0.179678 -58.765117 19.401615 -24.164861 9.711189 -74.412964 11.444995 0.000000 0.000000 0.000000 1.065683 0.600865 1.538320 4.849105 8.873606 6.578577 8.499936 12.815154 62.567347 10.948447 22.781416 -5.092081 0.000000 0.000000 0.000000 
-2.196790 81.245651 10.156267 0.000000 0.000000 0.000000 5.167376 43.568493 -4.443179 -25.862341 7.423000 8.719073 20.756257 -35.567336 -4.902869 -7.275458 -4.612481 0.192152 0.000000 0.000000 0.000000 5.167376 43.568493 -4.443179 -13.880961 12.468109 1.986532 22.134676 9.137215 0.796574 -11.856450 0.653982 -1.681500 0.000000 0.000000 0.000000 5.167376 43.568493 -4.443179 0.000000 0.000000 0.000000 7.373208 0.338876 -2.913039 1.021570 0.402665 1.586733 0.000000 0.000000 0.000000 1.011855 0.599507 1.577680 -1.918163 23.066293 -7.797575 0.000000 0.000000 0.000000 1.011855 0.599507 1.577680 -0.156235 -7.215458 0.446555 -58.915026 18.233870 -24.765132 9.439969 -73.554430 11.301876 0.000000 0.000000 0.000000 1.011855 0.599507 1.577680 4.849877 8.905625 6.467971 7.348085 10.428513 62.949626 10.867234 23.018812 -5.002920 0.000000 0.000000 0.000000 
